<svg viewBox="0 0 640 512">
  <path d="m638.8 216.8-85.7-206.1c-3.381-8.162-12.77-12.03-20.94-8.647l-117.3 48.61c-8.162 3.381-12.06 12.73-8.68 20.89.002.002 0-.002 0 0l85.73 206.9c3.383 8.164 12.73 12.07 20.9 8.689l117.3-48.61c8.19-4.132 12.09-13.532 8.69-21.732zm-216.2 262.3-46.42-131.5c9.734-12.28 15.79-27.6 15.79-44.49 0-39.77-32.24-72-72.01-72-39.76 0-71.99 32.24-71.99 72.01 0 16.89 6.06 32.18 15.79 44.46l-46.36 131.52c-4.406 12.5 2.126 26.22 14.63 30.63 2.57 1.87 5.27 2.27 7.07 2.27 9.875 0 19.16-6.157 22.63-16l42.9-121.6c4.686.959 9.507 1.551 14.48 1.551s9.822-.5039 14.51-1.463l42.87 121.5c4.31 9.812 13.61 16.012 22.61 16.012 2.656 0 5.344-.4375 8.001-1.375 13.399-4.425 19.899-18.125 15.499-31.525zm-127.5-176c0-13.23 10.77-24 24-24s24 10.77 24 24-10.77 24-24 24c-12.3 0-24-9.9-24-24z"/>
  <path d="m488.6 269.9-96.7 33.73c-.1914-39.75-32.58-71.82-72.33-71.63-40.47.2-72.47 32.4-72.47 72 .0801 15.91 5.387 31.29 15.27 43.76l-127 43.69c-8.754 3.008-18.05-.7051-21.27-8.479l-7.9-21.071-64.02 26.5c-8.162 3.381-17.52-.4935-20.9-8.658l-20.06-48.42c-3.377-8.166.4967-17.52 8.659-20.91l64.08-26.55-8.749-21.062c-3.22-8.7.72-17 9.04-21.1l335.1-163.2z" opacity=".4"/>
</svg>
