<?xml version="1.0" standalone="no"?>
<!DOCTYPE svg PUBLIC "-//W3C//DTD SVG 20010904//EN"
 "http://www.w3.org/TR/2001/REC-SVG-20010904/DTD/svg10.dtd">
<svg version="1.0" xmlns="http://www.w3.org/2000/svg"
 width="1000.000000pt" height="1000.000000pt" viewBox="0 0 1000.000000 1000.000000"
 preserveAspectRatio="xMidYMid meet">
<metadata>
Created by potrace 1.14, written by Peter Selinger 2001-2017
</metadata>
<g transform="translate(0.000000,1000.000000) scale(0.100000,-0.100000)"
fill="#000000" stroke="none">
<path d="M0 8400 l0 -200 48 -1 c26 -1 52 0 57 1 6 2 26 2 45 0 19 -1 42 -2
50 -2 8 1 94 1 190 1 96 -1 181 0 188 0 6 1 20 1 30 1 9 0 37 1 62 1 25 0 50
1 55 1 6 -1 87 -1 180 -1 94 0 186 -1 205 -1 19 -1 42 -2 50 -1 8 0 58 0 110
0 52 -1 102 0 110 0 8 1 31 1 50 0 19 -1 42 -1 50 -1 8 1 94 1 190 1 96 -1
182 0 190 0 8 1 31 1 50 0 19 -1 42 -1 50 -1 8 1 94 1 190 1 96 -1 182 0 190
0 8 1 31 1 50 0 19 -1 42 -1 50 -1 8 1 94 1 190 1 96 -1 182 0 190 0 8 1 31 1
50 0 19 -1 42 -1 50 -1 8 1 130 1 270 0 140 0 261 1 268 1 20 2 39 2 97 2 30
0 61 0 68 0 6 1 98 1 202 0 105 0 197 0 205 0 8 0 80 0 160 0 80 0 152 0 160
0 8 1 41 0 72 -2 l57 -2 1 -141 c0 -78 1 -149 0 -158 0 -10 0 -39 0 -65 0 -27
0 -68 -1 -93 -1 -25 -1 -51 0 -57 2 -20 2 -83 2 -145 0 -7 -1 -71 -2 -141 -1
-70 1 -130 3 -133 3 -2 2 -21 -2 -42 -3 -20 -3 -49 1 -65 4 -15 4 -27 1 -27
-8 0 -7 -98 0 -106 3 -2 2 -21 -2 -42 -3 -20 -3 -49 1 -65 4 -15 4 -27 1 -27
-4 0 -6 -26 -4 -57 3 -71 3 -65 3 -138 -1 -33 -1 -68 -1 -77 1 -20 1 -100 1
-123 -1 -8 -1 -35 -1 -60 0 -25 0 -52 1 -60 0 -15 0 -95 0 -117 0 -7 -1 -71
-2 -141 -1 -70 1 -130 3 -133 3 -2 2 -21 -2 -42 -3 -20 -3 -49 1 -65 4 -15 4
-27 1 -27 -8 0 -7 -98 0 -106 3 -2 2 -21 -2 -42 -3 -20 -3 -49 1 -65 4 -15 4
-27 1 -27 -4 0 -6 -26 -4 -57 3 -71 3 -65 3 -138 -1 -33 -1 -68 -1 -77 1 -20
1 -100 1 -123 -1 -8 -1 -35 -1 -60 0 -25 0 -52 1 -60 0 -23 0 -103 -1 -122 0
-22 1 -104 2 -112 0 -3 -1 -10 -2 -16 -2 -11 -1 -128 1 -142 1 -4 0 -12 -1
-18 -2 -11 -1 -128 1 -142 1 -4 0 -12 -1 -18 -2 -11 -1 -128 1 -142 1 -4 0
-12 -1 -18 -2 -13 -2 -247 0 -260 2 -6 2 -12 1 -15 -6 -15 -5 -110 1 -110 3 0
3 -12 -1 -27 -4 -16 -4 -45 -1 -65 4 -21 5 -40 2 -42 -7 -8 -8 -106 0 -106 3
0 3 -12 -1 -27 -4 -16 -4 -45 -1 -65 4 -21 5 -40 2 -42 -7 -8 -8 -106 0 -106
3 0 3 -12 -1 -27 -4 -16 -4 -45 -1 -65 4 -21 5 -40 2 -42 -7 -8 -8 -106 0
-106 3 0 3 -12 -1 -27 -4 -16 -4 -45 -1 -65 4 -21 5 -40 2 -42 -6 -7 -8 -106
-2 -106 4 0 4 -86 0 -100 -2 -6 -1 -125 1 -137 1 -4 0 -12 -1 -18 -2 -11 -1
-128 1 -142 1 -4 0 -12 -1 -18 -2 -11 -1 -128 1 -142 1 -4 1 -12 -1 -18 -1 -5
-1 -66 0 -135 1 -69 1 -131 1 -137 -1 -7 -1 -34 -1 -60 0 -69 -1 -159 -3 -231
-1 -34 0 -62 3 -62 3 0 5 -29 5 -65 0 -36 -2 -65 -5 -65 -4 0 -4 -97 1 -110 1
-3 1 -8 0 -12 0 -4 -1 -29 -1 -55 0 -27 0 -63 0 -81 l-1 -32 241 0 241 0 -1
38 c0 20 1 59 2 85 2 27 0 51 -4 53 -4 3 -3 16 2 29 5 13 5 27 1 29 -5 3 -5
24 -1 46 4 22 4 43 -1 45 -4 3 -4 19 1 35 5 19 5 30 -1 30 -6 0 -7 5 -4 10 4
6 6 39 5 73 -1 73 -1 75 3 107 2 14 0 35 -5 48 -4 13 -5 21 0 19 4 -3 6 14 4
36 -3 51 -3 47 -3 127 1 68 1 75 0 155 0 28 0 55 0 60 5 88 5 107 -1 111 -4 3
-3 16 2 29 5 13 5 27 1 29 -5 3 -5 24 -1 46 4 22 4 43 -1 45 -4 3 -4 19 1 35
5 19 5 30 -1 30 -6 0 -7 5 -4 10 4 6 6 39 5 73 -1 73 -1 75 3 107 2 14 0 35
-5 48 -4 13 -5 21 0 19 4 -3 6 14 4 36 -3 51 -3 47 -3 127 1 68 1 75 0 155 0
28 0 55 0 60 5 88 5 107 -1 111 -4 3 -3 16 2 29 5 13 5 27 1 29 -5 3 -5 24 -1
46 4 22 4 43 -1 45 -4 3 -4 19 1 35 5 19 5 30 -1 30 -6 0 -7 5 -4 10 4 6 6 39
5 73 -1 73 -1 75 3 107 2 14 0 35 -5 48 -4 13 -5 21 0 19 4 -3 6 14 4 36 -3
51 -3 47 -3 127 1 68 1 75 0 155 0 28 0 55 0 60 5 88 5 107 -1 111 -4 3 -3 16
2 29 5 13 5 27 1 29 -5 3 -5 24 -1 46 4 22 4 43 -1 45 -4 3 -4 19 1 35 5 19 5
30 -1 30 -6 0 -7 5 -4 10 4 6 6 39 5 73 -1 34 -1 68 -1 75 2 30 2 90 2 122 -1
34 -1 53 -1 85 0 8 0 22 0 30 0 8 0 22 0 30 0 8 0 22 0 30 0 8 0 21 -1 28 -1
21 0 121 1 142 1 11 1 26 1 33 -1 6 -1 19 -1 27 0 8 0 22 0 30 0 8 0 22 0 30
0 8 0 22 0 30 0 8 0 21 -1 28 -1 21 0 121 1 142 1 11 1 26 1 33 -1 6 -1 19 -1
27 0 8 0 22 0 30 0 8 0 22 0 30 0 8 0 22 0 30 0 8 0 21 -1 28 -1 21 0 121 1
142 1 11 1 26 1 33 -1 6 -1 19 -1 27 0 8 0 22 0 30 0 8 0 22 0 30 0 8 0 22 0
30 0 8 0 21 -1 28 -1 21 0 121 1 142 1 11 1 26 1 33 -1 6 -1 19 -1 27 0 8 0
22 0 30 0 8 0 22 0 30 0 8 0 22 0 30 0 8 0 21 -1 28 -1 21 0 121 1 142 1 11 1
26 1 33 -1 6 -1 19 -1 27 0 8 0 22 0 30 0 8 0 22 0 30 0 8 0 22 0 30 0 8 0 21
-1 28 -1 21 0 121 1 142 1 11 1 26 1 33 -1 6 -1 19 -1 27 0 8 0 22 0 30 0 8 0
22 0 30 0 8 0 22 0 30 0 8 0 21 -1 28 -1 21 0 121 1 142 1 11 1 26 1 33 -1 6
-1 19 -1 27 0 8 0 22 0 30 0 8 0 22 0 30 0 8 0 22 0 30 0 8 0 21 -1 28 -1 21
0 121 1 142 1 11 1 26 1 33 -1 6 -1 19 -1 27 0 8 0 22 0 30 0 8 0 22 0 30 0 8
0 22 0 30 0 8 0 21 -1 28 -1 21 0 121 1 142 1 11 1 26 1 33 -1 6 -1 19 -1 27
0 8 0 22 0 30 0 8 0 22 0 30 0 8 0 22 0 30 0 8 0 21 -1 28 0 11 0 88 0 127 1
8 2 49 4 90 2 41 -1 81 -6 88 -5 6 -6 12 -1 12 11 0 11 171 0 188 -4 7 -4 12
1 12 4 0 8 11 8 25 l0 25 -2482 0 -2483 0 0 -200z"/>
<path d="M5039 8578 c-5 -161 -2 -428 4 -428 5 0 5 -4 2 -10 -5 -8 -7 -162 -4
-300 0 -8 0 -80 0 -160 0 -80 0 -152 0 -160 0 -8 0 -80 0 -160 0 -80 0 -152 0
-160 0 -8 0 -80 0 -160 0 -80 0 -152 0 -160 0 -8 0 -80 0 -160 0 -80 0 -152 0
-160 0 -8 0 -80 0 -160 0 -80 0 -152 0 -160 0 -8 0 -80 0 -160 0 -80 0 -152 0
-160 0 -8 0 -80 0 -160 0 -80 0 -152 0 -160 0 -8 0 -80 0 -160 0 -80 0 -152 0
-160 0 -30 0 -316 -1 -355 -1 -22 -3 -41 -5 -43 -2 -2 0 -15 6 -29 5 -13 6
-22 1 -20 -4 3 -6 -14 -4 -36 3 -53 3 -48 1 -138 -1 -42 1 -82 5 -88 4 -6 2
-11 -4 -11 -6 0 -8 -5 -5 -10 7 -11 8 -87 2 -130 -2 -14 0 -35 5 -48 4 -13 5
-21 0 -19 -4 3 -6 -14 -4 -36 3 -53 3 -48 1 -138 -1 -42 1 -82 5 -88 4 -6 2
-11 -4 -11 -6 0 -8 -5 -5 -10 7 -11 8 -87 2 -130 -2 -14 0 -35 5 -48 4 -13 5
-21 0 -19 -4 3 -6 -14 -4 -36 3 -53 3 -48 1 -138 -1 -42 1 -82 5 -88 4 -6 2
-11 -4 -11 -6 0 -8 -5 -5 -10 7 -11 8 -87 2 -130 -2 -14 0 -35 5 -48 4 -13 5
-21 0 -19 -4 3 -6 -14 -4 -36 3 -53 3 -48 1 -138 -1 -42 1 -82 5 -88 4 -6 2
-11 -4 -11 -6 0 -8 -5 -5 -10 7 -11 8 -87 2 -130 -2 -14 0 -35 5 -48 4 -13 5
-21 0 -19 -4 3 -6 -14 -4 -36 3 -53 3 -48 1 -138 -1 -42 1 -82 5 -88 4 -6 2
-11 -4 -11 -6 0 -8 -5 -5 -10 7 -11 8 -87 2 -130 -2 -14 0 -35 5 -48 4 -13 5
-21 0 -19 -4 3 -6 -14 -4 -36 3 -53 3 -48 1 -138 -1 -42 1 -82 5 -88 4 -6 2
-11 -4 -11 -6 0 -8 -5 -5 -10 7 -11 8 -87 2 -130 -2 -14 0 -35 5 -48 4 -13 5
-21 0 -19 -4 3 -6 -14 -4 -36 3 -53 3 -48 1 -138 -1 -42 1 -82 5 -88 4 -6 2
-11 -4 -11 -6 0 -8 -5 -5 -10 7 -11 8 -87 2 -130 -2 -14 0 -35 5 -48 4 -13 5
-21 0 -19 -4 3 -7 -11 -6 -31 l1 -37 234 -3 c128 -1 239 0 245 2 8 3 9 18 5
43 -3 21 -4 79 -1 128 3 50 3 116 0 148 -3 32 -4 60 -2 62 5 4 3 494 -1 535
-2 14 -1 29 2 34 2 6 4 39 3 75 -3 124 -3 236 -2 246 1 6 1 42 1 80 0 39 0
135 0 215 0 80 0 179 -1 220 -1 41 -1 82 -1 90 3 61 0 173 -4 180 -3 5 -2 11
3 14 5 3 7 20 5 38 -2 36 -3 50 -3 443 -1 143 -2 271 -3 285 -2 14 -1 29 2 34
2 6 4 39 3 75 -3 125 -3 236 -2 246 1 6 1 51 0 100 -1 50 -1 95 -1 100 2 180
2 256 -3 264 -4 5 -3 12 2 15 5 3 7 20 5 38 -2 35 -3 73 -2 380 0 109 -2 202
-6 207 -3 5 -2 12 3 15 5 3 7 20 5 38 -2 35 -3 73 -2 380 0 109 -2 202 -6 207
-3 5 -2 12 3 15 5 3 7 20 5 38 -2 35 -3 73 -2 380 0 109 -2 202 -6 207 -3 5
-2 12 3 15 5 3 7 20 5 38 -1 18 -2 67 -3 108 0 72 -1 399 -1 430 0 8 0 74 0
145 0 72 0 137 0 145 0 8 1 87 1 176 0 170 -2 164 48 164 9 0 37 1 62 1 25 0
51 1 58 0 9 0 164 0 270 0 9 0 82 0 162 0 80 0 150 0 155 0 62 1 409 0 435 -1
19 -1 42 -2 50 -2 8 1 130 1 270 0 140 0 262 1 270 1 8 1 31 1 50 0 19 -1 42
-1 50 -1 8 1 94 1 190 1 96 -1 182 0 190 0 8 1 31 1 50 0 19 -1 42 -1 50 -1 8
1 94 1 190 1 96 -1 182 0 190 0 8 1 31 1 50 0 19 -1 42 -1 50 -1 8 1 94 1 190
1 96 -1 182 0 190 0 8 1 31 1 50 0 19 -1 42 -1 50 0 8 0 58 0 110 0 52 -1 102
0 110 0 8 1 31 1 50 0 19 -1 42 -1 50 -1 8 1 94 1 190 1 96 -1 182 0 190 0 8
1 31 1 50 0 19 -1 42 -1 50 -1 8 1 93 1 188 1 l172 1 0 200 0 200 -2480 0
-2480 0 -1 -22z"/>
<path d="M680 8123 c0 -6 -9 -9 -20 -6 -18 5 -20 0 -21 -43 -1 -27 -1 -53 0
-58 1 -5 1 -43 1 -85 -1 -91 -1 -103 2 -161 3 -43 4 -45 40 -51 20 -3 42 -3
48 1 6 4 28 4 48 1 20 -3 57 -4 82 -1 25 3 77 3 116 0 39 -3 84 -3 100 0 16 4
43 3 59 0 17 -3 43 -4 59 0 16 3 62 3 101 0 39 -3 85 -3 101 0 16 4 43 3 59 0
17 -3 43 -4 59 0 16 3 62 3 101 0 39 -3 85 -3 101 0 16 4 43 3 59 0 17 -3 43
-4 59 0 16 3 62 3 101 0 39 -3 85 -3 101 0 16 4 43 3 59 0 17 -3 43 -4 59 0
16 3 62 3 101 0 39 -3 85 -3 101 0 16 4 43 3 59 0 17 -3 43 -4 59 0 16 3 119
3 228 0 110 -3 204 -3 209 1 5 3 33 2 63 -1 30 -3 62 -3 72 0 10 4 32 4 49 0
16 -3 41 -4 55 0 14 3 41 3 60 0 19 -3 49 -3 65 0 17 3 44 3 60 0 17 -4 41 -3
55 0 14 3 39 3 55 0 17 -4 38 -4 47 -1 9 3 96 4 193 1 98 -3 181 -2 187 1 5 3
27 3 48 -1 21 -4 45 -3 54 2 12 7 17 3 22 -17 3 -14 4 -37 1 -50 -2 -14 0 -28
4 -31 5 -3 5 -12 0 -21 -5 -9 -5 -29 -1 -45 5 -16 5 -30 -1 -34 -5 -3 -7 -10
-3 -15 6 -10 6 -57 1 -162 -1 -26 2 -47 6 -47 4 0 4 -7 -1 -17 -6 -9 -6 -29
-2 -45 5 -15 5 -30 0 -33 -4 -3 -5 -20 -1 -37 4 -18 5 -44 4 -58 -2 -14 -3
-35 -3 -47 0 -13 0 -31 0 -40 -1 -116 0 -145 5 -153 3 -6 2 -10 -2 -10 -5 0
-6 -29 -3 -65 3 -36 3 -65 0 -65 -3 0 -5 -22 -5 -50 0 -27 4 -50 8 -50 5 0 5
-5 2 -10 -7 -12 -9 -266 -1 -278 2 -4 1 -14 -4 -21 -4 -8 -4 -27 0 -42 5 -16
5 -31 0 -34 -4 -3 -5 -20 -1 -37 3 -18 4 -51 1 -73 -3 -22 -3 -59 1 -82 3 -23
2 -47 -2 -54 -4 -6 -3 -25 1 -40 5 -16 5 -31 0 -34 -4 -3 -5 -20 -1 -37 4 -18
6 -42 5 -53 -3 -23 -4 -61 -4 -90 0 -11 0 -78 0 -148 0 -71 2 -133 6 -138 3
-5 2 -9 -3 -9 -4 0 -8 -22 -8 -50 0 -27 4 -50 8 -50 5 0 5 -5 2 -10 -7 -12 -9
-266 -1 -278 2 -4 1 -14 -4 -21 -4 -8 -4 -27 0 -42 5 -16 5 -31 0 -34 -5 -3
-7 -11 -5 -18 9 -24 12 -88 5 -92 -4 -3 -4 -20 0 -39 4 -19 5 -37 2 -40 -2 -3
-4 -36 -3 -73 1 -38 2 -75 1 -83 -1 -51 2 -115 6 -122 3 -4 2 -8 -3 -8 -4 0
-8 -22 -8 -50 0 -27 4 -50 8 -50 5 0 5 -5 2 -10 -7 -12 -9 -266 -1 -278 2 -4
1 -14 -4 -21 -4 -8 -4 -27 0 -42 5 -16 5 -31 0 -34 -4 -3 -5 -20 -1 -37 4 -18
6 -42 5 -53 -3 -23 -4 -61 -4 -90 0 -11 0 -78 0 -148 0 -71 2 -133 6 -138 3
-5 2 -9 -3 -9 -4 0 -8 -22 -8 -50 0 -27 4 -50 8 -50 5 0 5 -5 2 -10 -7 -12 -9
-266 -1 -278 2 -4 1 -14 -4 -21 -4 -8 -4 -27 0 -42 5 -16 5 -31 0 -34 -4 -3
-5 -20 -1 -37 4 -18 6 -42 5 -53 -3 -23 -4 -61 -4 -90 0 -11 0 -78 0 -148 0
-71 2 -133 6 -138 3 -5 1 -9 -3 -9 -5 0 -6 -25 -3 -55 3 -30 3 -55 -1 -55 -3
0 -3 -18 1 -40 4 -22 5 -40 1 -40 -3 0 -5 -19 -4 -42 3 -62 4 -116 2 -173 0
-27 0 -54 1 -60 1 -5 1 -40 0 -77 -1 -60 10 -92 24 -69 3 5 21 6 38 2 18 -4
44 -5 58 -1 14 4 34 5 45 3 24 -4 24 -4 143 -3 63 1 92 5 93 13 2 16 1 43 -3
95 -2 23 -1 42 2 42 6 0 3 107 -4 126 -3 8 -2 14 2 14 8 0 6 104 -2 126 -3 7
-1 16 4 19 5 3 5 18 1 33 -5 15 -5 36 -1 47 4 11 4 32 -1 47 -4 15 -4 30 1 33
5 3 5 18 1 33 -5 15 -5 36 -1 47 4 11 4 32 -1 47 -4 15 -4 30 1 33 5 3 5 18 1
33 -5 15 -5 36 -1 47 4 11 4 32 -1 47 -4 15 -4 30 1 33 5 3 7 12 4 19 -7 18
-11 96 -4 96 6 0 4 96 -4 115 -3 8 -1 17 5 20 5 4 7 11 4 16 -8 12 -12 89 -5
89 6 0 3 107 -4 126 -3 8 -2 14 3 14 4 0 5 23 1 50 -4 28 -4 50 -1 50 7 0 5
95 -3 115 -3 8 -1 17 5 20 5 4 7 11 4 16 -8 12 -12 89 -5 89 6 0 3 107 -4 126
-3 8 -2 14 3 14 4 0 5 23 1 50 -4 28 -4 50 -1 50 7 0 5 95 -3 115 -3 8 -1 17
5 20 5 4 7 11 4 16 -8 12 -12 89 -5 89 6 0 3 87 -4 106 -3 7 -1 16 4 19 5 3 5
18 1 33 -5 15 -5 36 -1 47 4 11 4 32 -1 47 -4 15 -4 30 1 33 5 3 5 18 1 33 -5
15 -5 36 -1 47 4 11 4 32 -1 47 -4 15 -4 30 1 33 5 3 5 18 1 33 -5 15 -5 36
-1 47 4 11 4 32 -1 47 -4 15 -4 30 1 33 5 3 7 12 4 19 -7 18 -11 96 -4 96 6 0
4 96 -4 115 -3 8 -1 17 5 20 5 4 7 11 4 16 -8 12 -12 89 -5 89 6 0 3 107 -4
126 -3 8 -2 14 3 14 4 0 5 23 1 50 -4 28 -4 50 -1 50 7 0 5 95 -3 115 -3 8 -1
17 5 20 5 4 7 11 4 16 -8 12 -12 89 -5 89 6 0 3 107 -4 126 -3 8 -2 14 3 14 4
0 5 23 1 50 -4 28 -4 50 -1 50 7 0 5 95 -3 115 -3 8 -1 17 5 20 5 4 7 11 4 16
-9 13 -12 89 -4 89 3 0 3 18 -1 40 -4 22 -5 40 -1 40 7 0 5 95 -3 115 -3 8 -1
17 5 20 5 4 7 11 4 16 -8 12 -12 89 -5 89 6 0 3 107 -4 126 -3 8 -2 14 3 14 4
0 5 23 1 50 -4 28 -4 50 -1 50 7 0 5 95 -3 115 -3 8 -1 17 5 20 5 4 7 11 4 16
-8 12 -12 89 -5 89 6 0 3 107 -4 126 -3 8 -2 14 3 14 4 0 5 23 1 50 -4 28 -4
50 -1 50 7 0 5 95 -3 115 -3 8 -1 17 5 20 5 4 7 11 4 16 -9 13 -12 89 -4 89 3
0 3 18 -1 40 -4 22 -5 40 -1 40 7 0 5 95 -3 115 -3 8 -1 17 5 21 7 4 6 10 0
18 -6 7 -8 16 -5 19 8 8 9 465 1 473 -3 3 -94 5 -201 5 -239 -2 -205 -2 -306
-1 -47 0 -93 0 -102 -1 -10 0 -43 0 -73 0 -30 0 -61 0 -67 -1 -7 0 -25 2 -40
5 -16 3 -28 2 -28 -2 0 -5 -17 -5 -37 -2 -21 4 -51 4 -68 1 -16 -3 -49 -3 -73
1 -23 3 -44 3 -47 0 -2 -4 -31 -4 -64 -1 -33 3 -70 2 -81 -2 -12 -4 -19 -4
-16 0 2 4 -26 6 -62 5 -37 -1 -85 -3 -107 -3 -22 -1 -50 1 -62 4 -13 3 -23 1
-23 -3 0 -5 -17 -5 -37 -2 -21 4 -51 4 -68 1 -16 -3 -49 -3 -73 1 -23 3 -45 2
-48 -3 -3 -4 -9 -6 -14 -3 -10 6 -219 9 -225 3 -3 -3 -24 -2 -48 1 -23 4 -55
4 -72 1 -16 -3 -49 -3 -73 1 -23 3 -45 2 -48 -3 -3 -4 -9 -6 -14 -3 -7 4 -112
7 -170 3 -8 0 -27 2 -42 5 -16 3 -28 2 -28 -2 0 -5 -17 -5 -37 -2 -21 4 -51 4
-68 1 -16 -3 -49 -3 -73 1 -23 3 -45 2 -48 -3 -3 -4 -9 -6 -14 -3 -7 4 -112 7
-170 3 -8 0 -27 2 -42 5 -16 3 -28 1 -28 -4 0 -6 -4 -7 -10 -4 -8 5 -40 6
-120 4 -8 0 -50 1 -92 2 -43 1 -80 0 -83 -3 -3 -2 -24 -2 -48 1 -23 4 -55 4
-72 1 -16 -3 -49 -3 -73 1 -23 3 -44 3 -47 0 -2 -4 -30 -4 -62 -1 -32 3 -74 3
-93 -1 -19 -3 -44 -2 -56 2 -11 4 -27 3 -35 -1 -8 -6 -16 -4 -21 3 -6 9 -8 9
-8 0z"/>
<path d="M5625 8122 l-30 -3 2 -260 c0 -143 4 -266 7 -274 3 -8 2 -15 -2 -15
-7 0 -5 -126 3 -147 2 -7 1 -13 -3 -13 -4 0 -7 -63 -7 -140 0 -82 4 -140 9
-140 6 0 5 -5 -1 -11 -7 -7 -8 -20 -3 -34 4 -12 4 -28 0 -35 -5 -8 -6 -18 -3
-23 7 -11 10 -97 3 -97 -6 0 -2 -130 5 -147 2 -7 1 -13 -3 -13 -4 0 -7 -63 -7
-140 0 -82 4 -140 10 -140 5 0 4 -5 -2 -11 -7 -7 -8 -20 -3 -34 4 -12 4 -28 0
-35 -5 -8 -6 -18 -3 -23 7 -11 10 -97 3 -97 -6 0 -2 -130 5 -147 2 -7 1 -13
-3 -13 -4 0 -7 -63 -7 -140 0 -82 4 -140 10 -140 5 0 4 -5 -2 -11 -7 -7 -8
-20 -3 -34 4 -12 4 -28 0 -35 -5 -8 -6 -18 -3 -23 7 -11 10 -97 3 -97 -6 0 -2
-130 5 -147 2 -7 1 -13 -3 -13 -4 0 -7 -63 -7 -140 0 -82 4 -140 10 -140 5 0
4 -5 -2 -11 -7 -7 -8 -20 -3 -34 4 -12 4 -28 0 -35 -5 -8 -6 -18 -3 -23 7 -11
10 -97 3 -97 -7 0 -5 -189 3 -196 3 -3 2 -17 -3 -30 -5 -13 -6 -26 0 -29 5 -3
5 -18 0 -35 -5 -17 -5 -30 0 -30 5 0 5 -13 0 -29 -4 -16 -6 -32 -3 -35 6 -6 6
-71 -1 -103 -3 -13 -1 -25 4 -28 6 -3 5 -16 0 -30 -5 -14 -5 -27 0 -30 5 -3 5
-18 0 -35 -5 -17 -5 -30 0 -30 5 0 5 -12 1 -27 -4 -16 -5 -39 -1 -53 3 -14 3
-38 0 -55 -4 -16 -3 -42 1 -57 4 -16 3 -30 -1 -33 -5 -3 -5 -19 0 -35 5 -17 5
-30 0 -30 -5 0 -5 -13 0 -30 5 -16 5 -30 1 -30 -4 0 -7 -10 -5 -22 1 -13 3
-23 4 -23 1 0 2 -19 3 -43 1 -23 0 -42 -3 -42 -3 0 -5 -63 -5 -140 0 -82 4
-140 9 -140 6 0 5 -5 -1 -11 -7 -7 -8 -20 -3 -34 4 -12 4 -28 0 -35 -5 -8 -6
-18 -3 -23 7 -11 10 -97 3 -97 -7 0 -3 -188 4 -206 3 -7 1 -16 -4 -19 -5 -3
-5 -18 0 -35 5 -17 5 -30 0 -30 -5 0 -5 -13 0 -30 5 -16 5 -30 1 -30 -6 0 -7
-33 -1 -50 3 -7 -1 -69 -5 -92 -2 -9 0 -20 5 -23 6 -3 5 -16 0 -30 -5 -14 -5
-27 0 -30 5 -3 5 -18 0 -35 -5 -17 -5 -30 0 -30 5 0 5 -13 0 -29 -4 -16 -6
-32 -3 -35 6 -6 6 -71 -1 -103 -3 -13 -1 -25 4 -28 6 -3 5 -16 0 -30 -5 -14
-5 -27 0 -30 5 -3 5 -18 0 -35 -5 -17 -5 -30 0 -30 5 0 5 -12 1 -27 -4 -16 -5
-39 -1 -53 3 -14 3 -38 0 -55 -4 -16 -3 -42 1 -57 4 -16 3 -30 -1 -33 -5 -3
-5 -19 0 -35 5 -17 5 -30 0 -30 -5 0 -5 -13 0 -30 5 -16 5 -30 1 -30 -4 0 -7
-10 -5 -22 1 -13 3 -23 4 -23 1 0 2 -22 3 -50 l2 -50 45 4 c25 1 47 4 49 6 1
2 14 0 27 -5 14 -6 26 -6 29 0 3 6 15 6 29 0 13 -5 26 -6 29 -4 9 10 167 9
167 -1 0 -5 5 -4 11 2 5 5 10 28 9 49 0 21 -1 55 0 74 0 98 0 161 -3 223 -1
37 0 67 3 67 3 0 4 33 2 72 -1 40 -2 94 -2 121 0 26 0 55 0 65 0 9 0 28 1 42
0 14 1 36 1 50 0 14 -1 36 -1 50 -1 14 -1 33 -1 43 0 9 0 38 0 65 -1 26 1 56
3 67 2 11 1 32 -3 46 -4 15 -4 32 0 39 4 6 4 27 0 46 -4 19 -4 36 0 39 5 3 5
18 0 34 -4 15 -4 34 0 42 5 7 6 17 4 21 -3 5 -5 29 -4 53 0 25 1 53 1 63 0 9
0 40 0 67 0 28 0 57 0 65 -1 8 0 38 0 65 1 28 1 62 0 78 0 26 -1 94 0 160 0
17 0 58 -1 91 -1 32 1 60 4 63 2 2 1 17 -4 32 -4 16 -4 34 0 41 4 6 4 27 0 46
-4 19 -4 36 0 39 5 3 5 18 0 34 -4 15 -4 34 0 41 4 6 4 26 0 44 -3 17 -3 43 1
59 4 16 3 27 -2 27 -6 0 -7 4 -4 10 5 8 7 77 4 185 -1 17 0 42 0 58 1 15 1 39
2 55 1 36 1 71 0 102 -1 14 -1 33 -1 43 0 9 0 38 0 65 -1 26 1 56 3 67 2 11 1
32 -3 46 -4 15 -4 32 0 39 4 6 4 27 0 46 -4 19 -4 36 0 39 5 3 5 18 0 34 -4
15 -4 34 0 42 5 7 6 17 4 21 -3 5 -5 29 -4 53 0 25 1 53 1 63 0 9 0 40 0 67 0
28 0 57 0 65 -1 8 0 38 0 65 1 28 1 62 0 78 0 26 -1 94 0 160 0 17 0 58 -1 91
-1 32 1 60 4 63 2 2 1 17 -4 32 -4 16 -4 34 0 41 4 6 4 27 0 46 -4 19 -4 36 0
39 5 3 5 18 0 34 -4 15 -4 34 0 41 4 6 4 27 0 46 -4 19 -4 36 0 39 5 3 5 18 0
34 -4 15 -4 34 0 41 4 6 4 27 0 46 -4 19 -4 36 0 39 5 3 5 18 0 34 -4 15 -4
34 0 42 5 7 6 17 4 21 -3 5 -5 29 -4 53 0 25 1 53 1 63 0 9 0 40 0 67 0 28 0
57 0 65 -1 8 0 38 0 65 1 28 1 62 0 78 0 26 -1 94 0 160 0 17 0 58 -1 91 -1
32 1 60 4 63 2 2 1 17 -4 32 -4 16 -4 34 0 41 4 6 4 27 0 46 -4 19 -4 36 0 39
5 3 5 18 0 34 -4 15 -4 34 0 42 5 7 6 17 3 22 -3 5 -4 36 -3 70 1 34 1 71 0
82 -1 11 -1 27 -1 35 0 8 1 45 1 82 0 55 4 69 19 77 10 6 21 8 24 5 3 -4 34
-5 69 -4 35 1 68 1 73 1 6 0 30 0 55 0 25 0 59 -1 75 -2 17 0 37 -1 45 0 8 0
94 0 190 0 96 -1 181 -1 188 0 6 1 18 1 25 2 6 1 37 1 67 0 30 0 62 -1 70 0 8
0 33 0 55 0 22 0 47 0 55 0 8 0 38 0 65 0 28 0 57 0 65 0 8 0 33 0 55 0 22 0
47 0 55 0 15 0 540 0 573 0 31 0 107 0 120 0 6 1 50 1 97 0 47 0 93 0 103 0 9
0 37 0 62 0 25 0 51 0 58 0 6 1 50 1 97 0 47 0 93 0 103 0 9 0 37 0 62 0 25 0
51 0 58 0 6 1 50 1 97 0 47 0 93 0 103 0 9 0 37 0 62 0 25 0 51 0 58 0 23 1
192 0 217 -1 14 -1 32 -1 40 -1 8 0 56 0 107 0 l92 0 3 113 c2 62 2 152 0 199
-3 83 -4 87 -27 92 -14 2 -25 1 -25 -2 0 -4 -25 -4 -56 -1 -30 3 -57 2 -60 -2
-3 -5 -9 -6 -14 -3 -8 5 -57 6 -130 4 -8 0 -50 1 -92 2 -43 1 -80 0 -83 -3 -3
-2 -24 -2 -48 1 -23 4 -55 4 -72 1 -16 -3 -49 -3 -73 1 -23 3 -45 2 -48 -3 -3
-4 -9 -6 -14 -3 -7 4 -112 7 -170 3 -8 0 -27 2 -42 5 -16 3 -28 2 -28 -2 0 -5
-17 -5 -37 -2 -21 4 -51 4 -68 1 -16 -3 -49 -3 -73 1 -23 3 -45 2 -48 -3 -3
-4 -9 -6 -14 -3 -7 4 -112 7 -170 3 -8 0 -27 2 -42 5 -16 3 -28 1 -28 -4 0 -6
-4 -8 -8 -5 -9 5 -32 6 -137 7 -86 1 -98 1 -120 -1 -11 -1 -46 -1 -77 -1 -32
0 -64 0 -70 -1 -7 0 -25 2 -40 5 -16 3 -28 2 -28 -2 0 -5 -17 -5 -37 -2 -21 4
-51 4 -68 1 -16 -3 -49 -3 -73 1 -23 3 -44 3 -47 0 -2 -4 -31 -4 -64 -1 -33 3
-70 2 -81 -2 -12 -4 -19 -4 -16 0 2 4 -26 6 -62 5 -37 -1 -85 -3 -107 -3 -22
-1 -50 1 -62 4 -13 3 -23 1 -23 -3 0 -5 -17 -5 -37 -2 -21 4 -51 4 -68 1 -16
-3 -49 -3 -73 1 -23 3 -45 2 -48 -3 -3 -4 -9 -6 -13 -3 -7 4 -82 6 -151 4 -8
0 -40 0 -70 1 -30 0 -75 1 -100 1 -25 0 -162 1 -305 2 -143 1 -273 1 -290 -1z"/>
<path d="M962 7630 c-5 -14 -6 -32 -2 -41 5 -8 5 -21 0 -29 -5 -8 -5 -21 0
-30 5 -9 5 -22 0 -30 -5 -8 -5 -21 0 -31 5 -9 7 -18 5 -21 -8 -8 -11 -108 -4
-108 4 0 4 -13 -1 -30 -5 -17 -5 -30 0 -30 5 0 7 -6 4 -14 -3 -8 -1 -17 5 -21
15 -9 91 -12 91 -4 0 4 16 3 34 -1 19 -4 37 -5 40 -3 3 3 31 4 63 4 32 -1 82
-2 111 -1 93 1 106 1 145 -2 21 -2 41 0 44 4 2 5 8 6 13 3 5 -3 44 -5 87 -5
76 0 119 0 166 -1 31 0 123 0 185 1 93 1 106 1 145 -2 21 -2 41 0 44 4 2 5 8
6 13 3 5 -3 44 -5 87 -5 76 0 119 0 166 -1 12 0 45 0 72 0 28 0 64 -1 80 -2
17 -2 40 1 52 5 12 4 25 3 28 -1 3 -5 20 -6 38 -2 18 5 41 5 52 1 11 -4 30 -4
42 1 12 5 25 4 28 0 3 -5 20 -6 37 -2 18 4 44 6 58 4 14 -2 40 -3 58 -3 37 1
39 1 112 1 30 -1 69 -1 85 -1 17 1 41 -1 55 -3 14 -2 35 0 48 5 13 4 21 5 19
0 -3 -4 16 -5 43 -4 56 4 53 17 51 -208 0 -8 -1 -39 -2 -68 -1 -29 0 -54 2
-57 3 -2 2 -31 -1 -63 -3 -32 -3 -73 1 -91 4 -17 3 -34 -1 -36 -5 -3 -5 -18
-1 -33 5 -15 5 -36 1 -47 -4 -11 -4 -29 0 -41 5 -11 5 -27 0 -34 -4 -7 -5 -24
-1 -39 4 -14 6 -35 5 -46 -3 -23 -4 -61 -4 -90 0 -11 0 -78 0 -148 0 -71 2
-133 6 -138 3 -5 0 -9 -6 -9 -6 0 -9 -4 -6 -8 3 -5 5 -33 5 -63 1 -30 1 -65 2
-79 0 -14 0 -32 0 -40 -3 -48 -1 -122 4 -129 3 -6 1 -12 -4 -15 -5 -4 -6 -18
-2 -34 5 -15 5 -36 1 -47 -4 -11 -4 -29 0 -41 5 -11 5 -27 0 -34 -4 -7 -4 -24
0 -39 4 -14 4 -35 0 -46 -4 -11 -6 -23 -4 -26 4 -7 5 -55 4 -124 -1 -27 -1
-54 0 -60 1 -5 2 -13 1 -18 -1 -4 -1 -42 -1 -85 1 -99 1 -98 -1 -160 -1 -29 0
-54 2 -57 3 -2 2 -31 -1 -63 -3 -32 -3 -73 1 -91 4 -17 3 -34 -1 -36 -5 -3 -5
-18 -1 -33 5 -15 5 -36 1 -47 -4 -11 -4 -29 0 -41 5 -11 5 -27 0 -34 -4 -7 -5
-24 -1 -39 4 -14 6 -35 5 -46 -3 -23 -4 -61 -4 -90 0 -11 0 -78 0 -148 0 -71
2 -133 6 -138 3 -5 0 -9 -6 -9 -6 0 -9 -4 -6 -8 3 -5 5 -33 5 -63 1 -30 1 -65
2 -79 0 -14 0 -32 0 -40 -3 -48 -1 -122 4 -129 3 -6 1 -12 -4 -15 -5 -4 -6
-18 -2 -34 5 -15 5 -36 1 -47 -4 -11 -4 -29 0 -41 5 -11 5 -27 0 -34 -4 -7 -4
-25 0 -40 4 -15 4 -33 0 -40 -4 -6 -4 -27 0 -46 4 -19 4 -36 0 -39 -5 -3 -5
-18 -1 -33 5 -15 5 -36 1 -47 -4 -11 -4 -29 0 -41 5 -11 5 -27 0 -34 -4 -7 -5
-24 -1 -39 4 -14 6 -35 5 -46 -3 -23 -4 -61 -4 -90 0 -11 0 -78 0 -148 0 -71
2 -133 6 -138 3 -5 0 -9 -6 -9 -6 0 -9 -4 -6 -8 3 -5 5 -33 5 -63 1 -30 1 -65
2 -79 0 -14 0 -32 0 -40 -2 -52 -2 -148 1 -160 3 -17 77 -29 118 -19 14 3 42
2 63 -1 20 -4 40 -3 43 1 3 5 9 7 13 5 6 -4 133 -7 191 -5 8 0 22 -1 30 -3 16
-3 19 12 20 112 0 30 1 75 1 100 1 25 0 52 0 60 0 8 0 35 0 60 0 25 0 52 0 60
0 8 0 35 0 60 0 25 1 50 0 55 0 6 0 48 0 95 0 47 -1 105 -2 130 0 25 0 51 0
58 1 6 1 18 2 25 1 13 0 93 -2 162 -1 22 -1 47 0 55 1 8 1 40 0 70 0 30 0 62
0 70 0 20 0 402 -1 415 0 6 1 30 1 55 0 25 1 52 0 60 0 8 0 35 0 60 0 25 0 52
0 60 -1 8 0 35 0 60 0 25 1 52 0 60 0 8 0 35 0 60 1 59 1 76 0 130 0 25 0 54
1 65 1 11 1 27 1 35 0 8 0 53 0 100 1 113 0 254 0 295 -1 11 -1 38 0 60 0 22
0 47 0 55 0 8 0 38 0 65 0 28 0 59 -1 70 -1 11 -1 27 -1 35 1 52 2 608 2 665
-1 11 0 43 0 70 0 28 0 55 0 60 0 6 0 48 0 95 0 47 -1 105 -2 130 0 25 0 51 0
58 1 6 1 18 2 25 1 13 0 93 -2 162 -1 22 -1 45 0 50 4 46 3 106 -1 110 -2 3
-2 27 2 55 3 27 4 54 0 60 -3 5 -3 35 0 66 3 30 2 57 -2 60 -5 3 -6 9 -4 13 4
6 7 69 5 111 0 8 0 98 0 200 1 102 0 194 -2 204 -4 19 -15 19 -281 19 -152 0
-279 -3 -283 -7 -3 -3 -12 -1 -20 5 -9 8 -13 8 -13 0 0 -7 -8 -8 -22 -3 -13 5
-36 6 -53 2 -16 -3 -49 -3 -73 1 -23 3 -45 2 -48 -2 -2 -5 -15 -5 -27 0 -12 5
-30 5 -40 2 -10 -4 -43 -4 -72 -1 -29 3 -61 3 -71 0 -10 -4 -33 -4 -51 1 -18
4 -35 3 -38 -2 -3 -4 -16 -5 -28 0 -12 5 -31 5 -42 1 -11 -4 -34 -4 -52 1 -18
4 -35 4 -38 -1 -2 -4 -25 -4 -49 0 -25 4 -51 3 -58 -1 -7 -4 -18 -3 -25 3 -9
7 -13 7 -13 -1 0 -7 -8 -8 -24 -1 -13 5 -26 6 -29 3 -3 -3 -32 -4 -64 -4 -132
4 -164 3 -170 -3 -3 -3 -12 -1 -20 5 -9 8 -13 8 -13 0 0 -7 -8 -8 -24 -1 -13
5 -26 6 -29 3 -3 -3 -32 -4 -64 -4 -132 4 -164 3 -170 -3 -3 -3 -12 -1 -20 5
-9 8 -13 8 -13 0 0 -7 -8 -8 -24 -1 -13 5 -26 6 -29 3 -3 -3 -32 -4 -64 -4
-132 4 -164 3 -170 -3 -3 -3 -12 -1 -20 5 -9 8 -13 8 -13 0 0 -7 -8 -8 -24 -1
-13 5 -26 6 -29 3 -3 -3 -32 -4 -64 -4 -132 4 -164 3 -170 -3 -3 -3 -12 -1
-20 5 -9 8 -13 8 -13 0 0 -7 -8 -8 -24 -1 -13 5 -26 7 -28 4 -10 -9 -128 -9
-132 1 -2 6 -8 -1 -14 -15z"/>
<path d="M6177 7642 c-19 -4 -18 23 -17 -392 1 -157 1 -292 1 -300 0 -8 0 -55
0 -105 1 -49 1 -97 1 -105 -1 -8 -1 -249 -1 -535 0 -286 0 -527 0 -535 0 -8 0
-55 0 -105 1 -49 1 -97 1 -105 -1 -8 -1 -177 -1 -375 0 -198 0 -367 0 -375 0
-8 0 -55 0 -105 1 -49 1 -97 1 -105 -1 -8 -1 -177 -1 -375 0 -198 0 -367 0
-375 0 -8 0 -55 0 -105 1 -49 1 -97 1 -105 -1 -8 -1 -177 -1 -375 1 -423 1
-388 -1 -400 -1 -6 -2 -65 -1 -132 l1 -123 23 9 c12 4 33 5 47 1 14 -4 34 -4
45 0 11 4 29 4 39 0 11 -4 34 -4 50 0 17 3 50 3 73 0 23 -4 48 -3 54 1 7 4 21
4 33 0 11 -5 35 -5 53 -1 17 4 33 4 35 -1 8 -23 29 12 28 47 0 37 0 54 0 92 1
31 1 147 1 162 -1 8 0 38 0 65 1 28 1 62 0 78 0 26 -1 92 0 160 0 17 0 61 -1
96 0 35 1 65 3 68 3 2 1 20 -3 39 -4 19 -4 36 0 39 5 3 5 18 0 34 -4 15 -4 34
0 41 4 6 4 27 0 46 -4 19 -4 36 0 39 5 3 5 18 0 34 -4 15 -4 34 0 41 4 6 4 27
0 46 -4 19 -4 36 0 39 5 3 5 18 0 34 -4 15 -4 34 0 41 4 6 4 27 0 46 -4 19 -4
36 0 39 5 3 5 18 0 34 -4 15 -4 34 0 42 5 7 6 17 3 21 -2 5 -4 39 -3 76 1 37
1 74 1 82 -1 8 0 38 0 65 1 28 1 62 0 78 0 26 -1 92 0 160 0 17 0 61 -1 96 0
35 1 65 3 68 3 2 1 20 -3 39 -4 19 -4 36 0 39 5 3 5 18 0 34 -4 15 -4 34 0 41
4 6 4 27 0 46 -4 19 -4 36 0 39 5 3 5 18 0 34 -4 15 -4 34 0 42 5 7 6 17 3 21
-2 5 -4 39 -3 76 1 37 1 74 1 82 -1 8 0 38 0 65 1 28 1 62 0 78 0 26 -1 92 0
160 0 17 0 61 -1 96 0 35 1 65 3 68 3 2 1 20 -3 39 -4 19 -4 36 0 39 5 3 5 18
0 34 -4 15 -4 34 0 41 4 6 4 27 0 46 -4 19 -4 36 0 39 5 3 5 18 0 34 -4 15 -4
34 0 42 5 7 6 17 3 21 -2 5 -4 39 -3 76 1 37 1 74 1 82 -1 8 0 38 0 65 1 28 1
62 0 78 0 26 -1 92 0 160 0 17 0 61 -1 96 0 35 1 65 3 68 3 2 1 20 -3 39 -4
19 -4 36 0 39 5 3 5 18 0 34 -4 15 -4 34 0 41 4 6 4 27 0 46 -4 19 -4 36 0 39
5 3 5 18 0 34 -4 15 -5 34 -1 40 4 7 5 29 2 49 -4 20 -4 58 -1 84 4 26 4 52 0
58 -3 5 -3 33 0 62 3 29 3 69 0 88 -10 63 1 93 38 101 19 4 32 2 32 -3 0 -7 4
-7 13 -1 6 5 23 7 37 3 14 -4 37 -3 52 1 14 4 29 5 32 2 2 -3 29 -5 58 -4 88
2 111 2 156 -1 23 -2 42 0 42 3 0 3 20 3 45 -1 25 -4 48 -3 51 1 2 5 15 5 27
0 12 -5 30 -5 40 -2 10 4 43 4 72 1 30 -3 63 -3 74 2 11 4 23 3 26 -1 3 -5 20
-6 38 -2 18 5 41 5 52 1 11 -4 30 -4 42 1 13 5 25 4 28 -2 4 -5 11 -7 16 -3 6
3 36 5 67 4 31 -1 63 -1 70 -1 31 2 70 2 105 -1 21 -2 41 0 44 4 2 5 8 6 13 3
5 -3 44 -5 87 -5 76 0 119 0 166 -1 31 0 123 0 185 1 93 1 106 1 145 -2 21 -2
41 0 44 4 2 5 8 6 13 3 10 -6 149 -7 190 -2 14 2 32 0 40 -4 9 -4 31 -4 50 0
19 4 54 4 78 1 23 -4 45 -3 48 2 3 4 12 4 21 0 8 -5 26 -7 40 -4 20 4 24 10
23 36 -1 17 -1 34 0 39 4 20 2 98 -3 104 -4 3 -2 14 4 24 7 13 6 19 -1 19 -6
0 -9 4 -5 9 10 17 7 153 -3 163 -11 11 -149 14 -159 4 -3 -3 -12 -1 -20 5 -9
8 -13 8 -13 0 0 -7 -8 -8 -24 -1 -13 5 -26 6 -29 3 -3 -3 -32 -4 -64 -4 -132
4 -164 3 -170 -3 -3 -3 -12 -1 -20 5 -9 8 -13 8 -13 0 0 -7 -8 -8 -24 -1 -13
5 -26 6 -29 3 -3 -3 -32 -4 -64 -4 -132 4 -164 3 -170 -3 -3 -3 -12 -1 -20 5
-9 8 -13 8 -13 0 0 -7 -8 -8 -24 -1 -13 5 -26 6 -29 3 -3 -3 -32 -4 -64 -4
-132 4 -164 3 -170 -3 -3 -3 -12 -1 -20 5 -9 8 -13 8 -13 0 0 -7 -8 -8 -24 -1
-13 5 -26 6 -29 3 -6 -5 -83 -5 -143 0 -18 2 -40 0 -50 -3 -10 -4 -33 -4 -51
1 -18 4 -35 3 -38 -2 -3 -4 -16 -5 -28 0 -12 5 -31 5 -42 1 -11 -4 -34 -4 -52
1 -18 4 -35 3 -38 -1 -3 -5 -18 -6 -33 -3 -15 3 -34 5 -42 4 -39 -2 -164 0
-170 4 -3 2 -12 0 -20 -5 -9 -5 -19 -5 -27 2 -9 7 -13 7 -13 -1 0 -7 -8 -8
-22 -3 -13 5 -36 6 -53 2 -16 -3 -49 -3 -73 1 -23 3 -45 2 -48 -2 -2 -5 -15
-5 -27 0 -12 5 -31 5 -42 1 -11 -4 -23 -6 -26 -4 -5 3 -67 5 -129 4 -8 -1 -39
1 -68 2 -29 2 -58 0 -65 -4 -6 -4 -15 -4 -21 -1 -10 7 -299 11 -329 5z"/>
</g>
</svg>
